<svg xmlns="http://www.w3.org/2000/svg" viewBox="0 0 1080 1080"><defs><style>.cls-1,.cls-2{fill:#fff;}.cls-2{font-size:38.16px;font-family:SFProDisplay-Medium, SF Pro Display;font-weight:500;letter-spacing:0.4em;}</style></defs><g id="Layer_1" data-name="Layer 1"><rect y="-2.7" width="1080" height="1085.4"/></g><g id="Layer_2" data-name="Layer 2"><path class="cls-1" d="M319.1,532.76l.35.66A49.69,49.69,0,0,1,325,551.85c1.1,11,5.78,29,24.49,31.33H319.1Z"/><path class="cls-1" d="M276.76,421.4s-20.42,10.36-34.09,24.69a48.29,48.29,0,0,1-4.47,4.23c-5,4.09-14.89,10.86-19,4.2a9.17,9.17,0,0,1,1.4-11C226.34,437.34,241.37,426.21,276.76,421.4Z"/><path class="cls-1" d="M293.77,421.4s35.09,8.53,60.28,73.16a242.59,242.59,0,0,1,10.42,34.3c5.61,24.57,29.58,106.44,101.29,112.48,0,0-38-12-64-96.08-1.89-6.09-3.53-12.25-5-18.45C391.69,506.24,367,423,293.77,421.4Z"/><path class="cls-1" d="M423,439.36v46.69h0a16.75,16.75,0,0,1-4.77-11.12c-.45-11.24-4-33.92-25.1-35.56Z"/><path class="cls-1" d="M481.38,641.34s16.31-5,34-23.54a38.78,38.78,0,0,1,13.06-9.09c5.8-2.44,12.14-3.46,12.27,3.64a12.7,12.7,0,0,1-3.78,9C531.31,627.13,516.56,637.47,481.38,641.34Z"/><path class="cls-1" d="M490,477.7s-13.22,1.39-13.22,30.16v48.26s-.93,24.59,13.22,28.53a45.74,45.74,0,0,1-41.08-27.24,56.53,56.53,0,0,1-5.08-23.83v-3.92a57.2,57.2,0,0,1,5.62-25C455.32,492.54,467.08,478.49,490,477.7Z"/><path class="cls-1" d="M496.5,477.7s13.22,1.39,13.22,30.16v48.26s.93,24.59-13.22,28.53a45.73,45.73,0,0,0,41.08-27.24,56.39,56.39,0,0,0,5.09-23.83v-3.92a57.07,57.07,0,0,0-5.63-25C531.14,492.54,519.38,478.49,496.5,477.7Z"/><path class="cls-1" d="M547.11,442.28l46.25-15.62V575.42a5.28,5.28,0,0,1-7.27,4.89h0a17.4,17.4,0,0,0-13.91.38l-.88.41a5.28,5.28,0,0,1-7.53-4.8L564.2,452S564.59,434.94,547.11,442.28Z"/><path class="cls-1" d="M600.86,494.64s14.27-19.17,21.6,2.14a37.27,37.27,0,0,1,1.75,8.1c1,8.92,3.22,34.53,0,57.34-.17,1.19-.35,2.38-.5,3.57-.36,3.06-2.2,13.5-10.42,17.39a9.36,9.36,0,0,1-12.1-3.34,7.3,7.3,0,0,1-.36-.68v5.5h4.76a50,50,0,0,0,47.44-33.41c.2-.57.39-1.15.58-1.74a77,77,0,0,0,3.36-27c-.81-16.71-6.2-43.55-32.48-44.83C624.52,477.7,610.14,476.08,600.86,494.64Z"/><path class="cls-1" d="M663.27,442.21l46.63-15.55V570.11a15.06,15.06,0,0,0,1.51,6.77c1.74,3.47,5.42,7.31,13.1,6.38H665.59s11.3,1.68,13.43-9.1a15.51,15.51,0,0,0,.25-3V448.7S680,437.1,663.27,442.21Z"/><path class="cls-1" d="M774.86,477.67s-19.26,11.86-12.53,56.41c0,0,5.57,31.78,34.57,27.14,0,0,16.24-2.32,22.27-18.79,0,0-9.28,39-40.6,42.23,0,0-39.67,6.72-47.33-42C731.24,542.66,720.34,488.07,774.86,477.67Z"/><path class="cls-1" d="M780,477.67s41.3-6,39.21,41.79H769.29l.61,0a22.53,22.53,0,0,0,21.27-21.65h0a24.5,24.5,0,0,0-3.08-13.1C786.33,481.64,783.73,478.72,780,477.67Z"/><ellipse class="cls-1" cx="845.85" cy="565.63" rx="16.24" ry="19.03"/><text class="cls-2" transform="translate(596.17 641.34)">FRAME</text></g></svg>